<?xml version="1.0" encoding="UTF-8" standalone="no"?>
<svg
   xmlns:dc="http://purl.org/dc/elements/1.1/"
   xmlns:cc="http://creativecommons.org/ns#"
   xmlns:rdf="http://www.w3.org/1999/02/22-rdf-syntax-ns#"
   xmlns:svg="http://www.w3.org/2000/svg"
   xmlns="http://www.w3.org/2000/svg"
   xmlns:sodipodi="http://sodipodi.sourceforge.net/DTD/sodipodi-0.dtd"
   xmlns:inkscape="http://www.inkscape.org/namespaces/inkscape"
   fill="#fff"
   width="24"
   height="24"
   viewBox="0 0 24 24"
   id="svg2"
   version="1.1"
   inkscape:version="0.91 r13725"
   sodipodi:docname="download-svg.svg">
  <metadata
     id="metadata10">
    <rdf:RDF>
      <cc:Work
         rdf:about="">
        <dc:format>image/svg+xml</dc:format>
        <dc:type
           rdf:resource="http://purl.org/dc/dcmitype/StillImage" />
        <dc:title />
      </cc:Work>
    </rdf:RDF>
  </metadata>
  <defs
     id="defs8" />
  <sodipodi:namedview
     pagecolor="#ffffff"
     bordercolor="#666666"
     borderopacity="1"
     objecttolerance="10"
     gridtolerance="10"
     guidetolerance="10"
     inkscape:pageopacity="0"
     inkscape:pageshadow="2"
     inkscape:window-width="1920"
     inkscape:window-height="1017"
     id="namedview6"
     showgrid="false"
     inkscape:zoom="19.666667"
     inkscape:cx="-2.1612332"
     inkscape:cy="11.456027"
     inkscape:window-x="-8"
     inkscape:window-y="-8"
     inkscape:window-maximized="1"
     inkscape:current-layer="svg2" />
  <path
     d="m 18.377061,9.6267504 q 0.209641,0.5051486 -0.172648,0.8624546 l -5.524703,5.519647 q -0.221976,0.234091 -0.554937,0.234091 -0.332962,0 -0.554936,-0.234091 L 6.0451329,10.489205 Q 5.6628441,10.131899 5.8724866,9.6267504 6.0821286,9.1462478 6.6000695,9.1462478 l 3.1569739,0 0,-5.5196479 q 0,-0.3203321 0.2343068,-0.5544152 0.2343068,-0.2341009 0.5549358,-0.2341009 l 3.156975,0 q 0.32063,0 0.554936,0.2341009 0.234306,0.2340831 0.234306,0.5544152 l 0,5.5196479 3.156972,0 q 0.517942,0 0.727586,0.4805026 z m 3.613254,2.6735876 q 0.172645,0 0.283633,0.110885 0.110988,0.110887 0.110988,0.283368 l 0,7.096689 q 0,0.172489 -0.110988,0.283376 -0.110988,0.110887 -0.283633,0.110887 l -19.7310838,0 q -0.1726464,0 -0.2836336,-0.110887 Q 1.8646103,19.963769 1.8646103,19.79128 l 0,-7.096689 q 0,-0.172481 0.1109873,-0.283368 0.1109872,-0.110885 0.2836336,-0.110885 l 2.3677308,0 q 0.1726463,0 0.2836345,0.110885 0.1109873,0.110887 0.1109873,0.283368 l 0,4.336869 14.2063782,0 0,-4.336869 q 0,-0.172481 0.110988,-0.283368 0.110988,-0.110885 0.283635,-0.110885 l 2.36773,0 z"
     id="path3005"
     inkscape:connector-curvature="0"
     style="fill:#ffffff;fill-opacity:1;stroke:none;stroke-width:1.00000012;stroke-opacity:1" />
</svg>
