<?xml version="1.0" encoding="UTF-8" standalone="no"?>
<!-- Generator: Adobe Illustrator 16.0.0, SVG Export Plug-In . SVG Version: 6.00 Build 0)  -->

<svg
   xmlns:dc="http://purl.org/dc/elements/1.1/"
   xmlns:cc="http://creativecommons.org/ns#"
   xmlns:rdf="http://www.w3.org/1999/02/22-rdf-syntax-ns#"
   xmlns:svg="http://www.w3.org/2000/svg"
   xmlns="http://www.w3.org/2000/svg"
   xmlns:sodipodi="http://sodipodi.sourceforge.net/DTD/sodipodi-0.dtd"
   xmlns:inkscape="http://www.inkscape.org/namespaces/inkscape"
   version="1.1"
   id="Layer_1"
   x="0px"
   y="0px"
   width="16"
   height="16"
   viewBox="0 0 16 16"
   enable-background="new 0 0 512 512"
   xml:space="preserve"
   inkscape:version="0.91 r13725"
   sodipodi:docname="icon_lock_open.svg"><metadata
     id="metadata9"><rdf:RDF><cc:Work
         rdf:about=""><dc:format>image/svg+xml</dc:format><dc:type
           rdf:resource="http://purl.org/dc/dcmitype/StillImage" /><dc:title></dc:title></cc:Work></rdf:RDF></metadata><defs
     id="defs7" /><sodipodi:namedview
     pagecolor="#ffffff"
     bordercolor="#666666"
     borderopacity="1"
     objecttolerance="10"
     gridtolerance="10"
     guidetolerance="10"
     inkscape:pageopacity="0"
     inkscape:pageshadow="2"
     inkscape:window-width="1366"
     inkscape:window-height="705"
     id="namedview5"
     showgrid="false"
     inkscape:zoom="20.85965"
     inkscape:cx="13.192114"
     inkscape:cy="9.5338839"
     inkscape:window-x="-8"
     inkscape:window-y="-8"
     inkscape:window-maximized="1"
     inkscape:current-layer="Layer_1" /><path
     d="M 14,7 12,7 8,7 8,4 C 8,1.7949416 6.2060625,0 4,0 1.7944375,0 0,1.7949416 0,4 L 0,7 2,7 2,4 C 2,2.8964671 2.8969688,2 4,2 5.1025312,2 6,2.8964969 6,4 L 6,7 C 4.8955,7 4,7.895503 4,9 l 0,5 c 0,1.104497 0.8955,2 2,2 l 8,0 c 1.1045,0 2,-0.895503 2,-2 L 16,9 C 16,7.895503 15.1045,7 14,7 Z m -2.875,4.534191 0,2.278311 c 0,0.276373 -0.848625,0.624994 -1.125,0.624994 -0.276375,0 -1.125,-0.348621 -1.125,-0.624994 l 0,-2.278311 c -0.2929687,-0.173853 -0.5,-0.792974 -0.5,-1.159195 0,-0.552745 1.0722813,-1.312497 1.625,-1.312497 0.552719,0 1.625,0.759782 1.625,1.312497 0,0.366221 -0.207031,0.985342 -0.5,1.159195 z"
     id="path3"
     inkscape:connector-curvature="0"
     sodipodi:nodetypes="sccsssccssscssssssscssscsssc" /></svg>