<?xml version="1.0" encoding="UTF-8" standalone="no"?>
<!-- Generator: Adobe Illustrator 19.0.0, SVG Export Plug-In . SVG Version: 6.00 Build 0)  -->

<svg
   xmlns:dc="http://purl.org/dc/elements/1.1/"
   xmlns:cc="http://creativecommons.org/ns#"
   xmlns:rdf="http://www.w3.org/1999/02/22-rdf-syntax-ns#"
   xmlns:svg="http://www.w3.org/2000/svg"
   xmlns="http://www.w3.org/2000/svg"
   xmlns:sodipodi="http://sodipodi.sourceforge.net/DTD/sodipodi-0.dtd"
   xmlns:inkscape="http://www.inkscape.org/namespaces/inkscape"
   version="1.1"
   id="Capa_1"
   x="0px"
   y="0px"
   viewBox="0 0 16 16"
   xml:space="preserve"
   inkscape:version="0.91 r13725"
   sodipodi:docname="icon_lock_close.svg"
   width="16"
   height="16"><metadata
     id="metadata75"><rdf:RDF><cc:Work
         rdf:about=""><dc:format>image/svg+xml</dc:format><dc:type
           rdf:resource="http://purl.org/dc/dcmitype/StillImage" /><dc:title></dc:title></cc:Work></rdf:RDF></metadata><defs
     id="defs73" /><sodipodi:namedview
     pagecolor="#ffffff"
     bordercolor="#666666"
     borderopacity="1"
     objecttolerance="10"
     gridtolerance="10"
     guidetolerance="10"
     inkscape:pageopacity="0"
     inkscape:pageshadow="2"
     inkscape:window-width="1366"
     inkscape:window-height="705"
     id="namedview71"
     showgrid="false"
     showguides="false"
     inkscape:zoom="15.023295"
     inkscape:cx="15.94783"
     inkscape:cy="6.1699228"
     inkscape:window-x="-8"
     inkscape:window-y="-8"
     inkscape:window-maximized="1"
     inkscape:current-layer="g5" /><g
     id="g3"
     transform="translate(0,-486.686)"><g
       id="g5"><g
         id="g7"
         transform="matrix(-0.03182901,0,0,0.03182901,15.999983,486.686)"><path
           style="fill:#010002"
           d="m 403.676,221.014 0,-68.746 C 403.697,68.293 335.339,0 251.407,0 167.411,0 99.096,68.293 99.096,152.268 l 0,68.768 -32.723,0 0,281.65 369.939,0 0,-281.672 z M 156.453,152.268 c 0,-52.309 42.581,-94.825 94.933,-94.825 52.266,0 94.825,42.538 94.825,94.825 l 0,68.768 -189.758,0 z m 141.098,273.194 -92.266,0 7.83,-77.202 c -9.664,-6.018 -16.178,-16.76 -16.178,-29.077 0,-18.961 35.402,-54.362 54.47,-54.362 18.961,0 54.319,35.402 54.319,54.362 0,12.317 -6.407,23.038 -16.157,29.077 z"
           id="path9"
           inkscape:connector-curvature="0"
           sodipodi:nodetypes="ccssccccccsssccscccssscc" /></g></g><g
       id="g11" /><g
       id="g13" /><g
       id="g15" /><g
       id="g17" /><g
       id="g19" /><g
       id="g21" /><g
       id="g23" /><g
       id="g25" /><g
       id="g27" /><g
       id="g29" /><g
       id="g31" /><g
       id="g33" /><g
       id="g35" /><g
       id="g37" /><g
       id="g39" /></g><g
     id="g41"
     transform="translate(0,-486.686)" /><g
     id="g43"
     transform="translate(0,-486.686)" /><g
     id="g45"
     transform="translate(0,-486.686)" /><g
     id="g47"
     transform="translate(0,-486.686)" /><g
     id="g49"
     transform="translate(0,-486.686)" /><g
     id="g51"
     transform="translate(0,-486.686)" /><g
     id="g53"
     transform="translate(0,-486.686)" /><g
     id="g55"
     transform="translate(0,-486.686)" /><g
     id="g57"
     transform="translate(0,-486.686)" /><g
     id="g59"
     transform="translate(0,-486.686)" /><g
     id="g61"
     transform="translate(0,-486.686)" /><g
     id="g63"
     transform="translate(0,-486.686)" /><g
     id="g65"
     transform="translate(0,-486.686)" /><g
     id="g67"
     transform="translate(0,-486.686)" /><g
     id="g69"
     transform="translate(0,-486.686)" /></svg>